<?xml version="1.0" encoding="UTF-8"?><svg id="Calque_2" xmlns="http://www.w3.org/2000/svg" viewBox="0 0 178.45 58.86"><defs><style>.cls-1,.cls-2{fill:#fff;}.cls-2,.cls-3,.cls-4{stroke:#000;stroke-miterlimit:10;stroke-width:.25px;}.cls-3{fill:none;}.cls-5{fill:#0f4c1e;}.cls-6,.cls-4{fill:#ba1111;}</style></defs><g id="Calque_2-2"><g id="Calque_1-2"><g><path class="cls-5" d="M.09,27.97c0-.38-.03-.82-.09-1.32,1.85,.88,3.54,1.32,5.06,1.32,.87,0,1.66-.14,2.36-.42s1.25-.7,1.64-1.27c.39-.56,.58-1.2,.58-1.92,0-.36-.06-.7-.18-1.02s-.32-.65-.6-1c-.28-.34-.68-.78-1.2-1.31-.52-.53-1.46-1.36-2.81-2.48l-1.16-.97c-.4-.35-.79-.72-1.16-1.1-.37-.38-.68-.74-.92-1.06-.25-.33-.43-.62-.55-.88s-.22-.54-.29-.86-.1-.63-.1-.97c0-.79,.21-1.53,.64-2.21,.43-.68,1.07-1.23,1.92-1.63,.85-.4,1.93-.6,3.24-.6,.91,0,2.07,.13,3.47,.4,0,.37,.05,.78,.13,1.23-.9-.28-1.65-.47-2.25-.57s-1.16-.15-1.7-.15c-.97,0-1.77,.16-2.39,.48s-1.11,.74-1.45,1.28c-.34,.53-.51,1.09-.51,1.68,0,.31,.05,.62,.15,.92,.1,.3,.26,.6,.48,.91s.52,.64,.89,1.01,.81,.78,1.31,1.25c.51,.47,1.18,1.07,2.02,1.8,.84,.73,1.44,1.25,1.78,1.56,.35,.31,.68,.64,.99,.99,.31,.35,.57,.7,.76,1.05,.2,.35,.34,.71,.43,1.08s.14,.76,.14,1.17c0,.92-.23,1.72-.7,2.42-.46,.69-1.15,1.22-2.05,1.58s-1.92,.54-3.04,.54c-.72,0-1.43-.06-2.11-.17s-1.6-.36-2.75-.74l.02-.02Z"/><path class="cls-5" d="M14.42,28.57c.19-2.65,.35-6.06,.51-10.25,.15-4.18,.23-7.43,.23-9.75,2.17,0,4.2,.01,6.11,.01h5.35c-.04,.38-.06,.72-.06,1.03l-1.17-.1c-.3-.03-.83-.05-1.58-.06h-2.21c-2.31,0-4.07,0-5.27,.01l-.3,8.41c1.48,.03,2.83,.04,4.06,.04,1.46,0,3.27-.01,5.42-.04-.04,.29-.06,.62-.07,.97l-5.53-.04c-.65,0-1.96,.01-3.93,.04l-.29,8.8h4.2c1.65,.01,2.79,0,3.43,0,.64-.02,1.51-.05,2.61-.11-.05,.39-.07,.74-.07,1.04-2.34,0-4.06-.01-5.14-.01h-6.3Z"/><path class="cls-5" d="M44.87,27.02c-.08,.34-.14,.74-.19,1.2-1,.24-1.93,.42-2.8,.51-.88,.1-1.66,.15-2.35,.15-1.43,0-2.78-.23-4.06-.69s-2.38-1.14-3.3-2.04-1.59-1.98-2.02-3.22-.64-2.54-.64-3.91c0-1.52,.25-3,.75-4.42s1.24-2.61,2.21-3.55c.97-.94,2.13-1.64,3.48-2.09,1.35-.46,2.8-.68,4.33-.68,.52,0,1.08,.02,1.68,.07,.6,.05,1.09,.1,1.48,.16,.38,.06,.9,.16,1.54,.29,.02,.4,.06,.82,.13,1.26-1.08-.35-2-.59-2.78-.7-.78-.12-1.53-.18-2.25-.18-1.26,0-2.47,.2-3.64,.59s-2.19,1.02-3.08,1.88c-.89,.86-1.57,1.93-2.05,3.21-.47,1.28-.71,2.59-.71,3.95s.2,2.56,.59,3.74c.39,1.19,.99,2.18,1.79,2.98s1.75,1.41,2.86,1.82,2.31,.62,3.62,.62c1.61,0,3.42-.32,5.41-.95Z"/><path class="cls-5" d="M48.45,28.57l.23-3.54,.42-11.03,.06-3.13v-2.29h2.93s3.34,.01,3.34,.01c1.39-.01,2.4,.17,3.03,.54,.63,.37,1.14,.89,1.5,1.57,.37,.68,.55,1.46,.55,2.34,0,1.09-.28,2.1-.83,3.01-.55,.91-1.31,1.61-2.26,2.09s-2.06,.72-3.3,.72c-.16,0-.39,0-.7-.03l7.01,9.76c-.24,0-.5-.01-.76-.01s-.52,0-.76,.01l-1.92-2.9-5.58-7.9c.87,.16,1.62,.23,2.26,.23,.77,0,1.52-.11,2.25-.32,.72-.21,1.35-.53,1.86-.95s.92-.95,1.2-1.58,.43-1.32,.43-2.06c0-.5-.07-.96-.21-1.39s-.36-.81-.66-1.14-.61-.56-.93-.7c-.32-.14-.73-.24-1.22-.3s-1.03-.1-1.58-.1h-2.41c-.53,.01-1.2,0-2.02-.01-.32,7.73-.51,14.1-.56,19.1-.24,0-.47-.01-.69-.01s-.44,0-.69,.01h.01Z"/><path class="cls-5" d="M63.65,28.57c.19-2.65,.35-6.06,.51-10.25,.15-4.18,.23-7.43,.23-9.75,2.17,0,4.2,.01,6.11,.01h5.35c-.04,.38-.06,.72-.06,1.03l-1.17-.1c-.3-.03-.83-.05-1.58-.06h-2.21c-2.31,0-4.07,0-5.27,.01l-.3,8.41c1.47,.03,2.83,.04,4.06,.04,1.47,0,3.27-.01,5.42-.04-.04,.29-.06,.62-.07,.97l-5.53-.04c-.65,0-1.96,.01-3.93,.04l-.29,8.8h4.2c1.65,.01,2.79,0,3.43,0,.64-.02,1.51-.05,2.61-.11-.05,.39-.07,.74-.07,1.04-2.34,0-4.06-.01-5.14-.01h-6.3Z"/><path class="cls-5" d="M83.3,28.57l.22-3.65,.57-15.45c-2.41,0-4.51,.04-6.3,.13,.05-.4,.07-.75,.07-1.04,2.35,0,4.78,.01,7.28,.01h6.38c-.05,.38-.07,.73-.07,1.03-1.18-.09-2.98-.13-5.39-.13h-.85l-.58,16.14c0,.22-.01,.45-.01,.67v2.29c-.24,0-.46-.01-.66-.01s-.41,0-.66,.01h0Z"/></g><path class="cls-6" d="M79.1,58.86c-2.5,0-4.59-.42-6.28-1.27-1.68-.85-2.95-1.98-3.8-3.4-.85-1.42-1.27-2.99-1.27-4.72,0-1.33,.24-2.7,.72-4.1,.48-1.4,1.21-2.78,2.17-4.15,1-1.37,2.23-2.62,3.7-3.75,1.47-1.13,3.07-2.04,4.8-2.73,1.73-.68,3.45-1.02,5.15-1.02s2.96,.34,3.77,1.02c.82,.68,1.23,1.56,1.23,2.62,0,.63-.15,1.33-.45,2.1s-.77,1.53-1.4,2.3c-.87,1.1-1.93,2.08-3.2,2.92-1.27,.85-2.61,1.52-4.02,2-1.42,.48-2.83,.73-4.22,.73-.23,0-.45,0-.65-.03-.2-.02-.42-.04-.65-.08-.13-.03-.19-.12-.17-.27,.02-.15,.09-.21,.23-.18,1.37,.1,2.82-.12,4.38-.65,1.55-.53,3.02-1.27,4.42-2.2s2.5-1.95,3.3-3.05c.93-1.3,1.4-2.5,1.4-3.6,0-.8-.28-1.47-.85-2.02s-1.47-.83-2.7-.83c-1.63,0-3.22,.34-4.75,1.03s-2.96,1.57-4.27,2.67c-1.32,1.1-2.44,2.3-3.38,3.6-.9,1.23-1.58,2.53-2.05,3.9-.47,1.37-.7,2.68-.7,3.95,0,1.47,.33,2.82,1,4.07s1.68,2.25,3.05,3,3.12,1.12,5.25,1.12c2.37,0,4.52-.41,6.45-1.22,1.93-.82,3.6-1.93,5-3.35s2.47-3.03,3.22-4.85,1.12-3.74,1.12-5.77c0-.87-.03-1.71-.08-2.53s-.21-1.61-.47-2.38c-.37-1.17-.83-2.38-1.4-3.65s-1.08-2.57-1.52-3.9c-.45-1.33-.68-2.68-.68-4.05,0-1.23,.25-2.47,.75-3.7,.67-1.5,1.64-2.71,2.93-3.62,1.28-.92,2.79-1.38,4.52-1.38,.63,0,1.28,.09,1.92,.27,.65,.18,1.21,.49,1.68,.93,.47,.43,.7,1.03,.7,1.8,0,.53-.17,.92-.5,1.15s-.68,.35-1.05,.35c-.2,0-.33-.02-.4-.05l.15-1c0-.83-.24-1.46-.72-1.88-.48-.42-1.11-.62-1.88-.62-.93,0-1.85,.26-2.75,.77-.9,.52-1.57,1.17-2,1.98-.67,1.23-1,2.5-1,3.8,0,1.13,.19,2.24,.58,3.33,.38,1.08,.85,2.13,1.4,3.15s1.06,1.99,1.53,2.92c1.33,2.53,2,5.18,2,7.95,0,2.4-.5,4.61-1.5,6.62-1,2.02-2.38,3.77-4.15,5.25-1.77,1.48-3.81,2.63-6.12,3.45-2.32,.82-4.81,1.22-7.47,1.22l-.02,.03Z"/><g><path class="cls-6" d="M112.29,44.83c-1.07,0-1.8-.34-2.2-1.02-.4-.68-.6-1.44-.6-2.28,0-.17,.03-.46,.08-.88,.05-.42,.11-.81,.17-1.17-.47,.63-1.02,1.33-1.67,2.1-.65,.77-1.31,1.42-1.97,1.95-1.07,.87-2.03,1.3-2.9,1.3s-1.47-.35-1.92-1.05-.67-1.58-.67-2.65c0-1.37,.3-2.75,.9-4.15s1.39-2.72,2.38-3.97,2.08-2.33,3.28-3.23c.7-.5,1.56-.91,2.58-1.22,1.02-.32,2.04-.48,3.07-.48,1.17,0,2.19,.18,3.08,.53,.88,.35,1.49,.84,1.83,1.47-.7,.9-1.42,2.01-2.15,3.33s-1.37,2.51-1.9,3.58c-.37,.73-.77,1.64-1.2,2.72s-.65,2.01-.65,2.78c0,.33,.08,.67,.25,1s.48,.5,.95,.5c.53,0,1.05-.2,1.55-.6,.5-.4,.92-.8,1.25-1.2,.77-.83,1.47-1.75,2.1-2.75s1.27-2.07,1.9-3.2c.1-.13,.2-.2,.3-.2,.13,0,.2,.1,.2,.3,0,.17-.03,.3-.1,.4-.57,1.1-1.2,2.2-1.9,3.3-.7,1.1-1.53,2.13-2.5,3.1-.47,.47-1.02,.87-1.65,1.2-.63,.33-1.25,.5-1.85,.5h-.04Zm-8-1.56c.63,0,1.33-.34,2.08-1.02s1.48-1.52,2.2-2.5,1.37-1.93,1.95-2.85c.58-.92,1.04-1.62,1.38-2.12,.7-1.1,1.35-2.02,1.95-2.75s1.53-1.3,2.8-1.7c.07,0,.12,0,.17-.02s.11-.03,.17-.03c-.3-.47-.8-.82-1.5-1.05s-1.38-.35-2.05-.35c-1.03,0-2.03,.28-3,.85s-1.85,1.28-2.65,2.15c-.77,.9-1.52,1.88-2.25,2.95s-1.32,2.15-1.77,3.25-.67,2.15-.67,3.15c0,.53,.09,1.01,.27,1.42,.18,.42,.49,.62,.92,.62h0Z"/><path class="cls-6" d="M128.69,44.78c-.97,0-1.73-.3-2.28-.9-.55-.6-.83-1.35-.83-2.25,0-.43,.08-.93,.25-1.5,.47-1.47,1.21-2.93,2.23-4.38,1.02-1.45,1.86-2.89,2.52-4.33,.23-.47,.35-.88,.35-1.25s-.11-.64-.33-.83c-.22-.18-.48-.28-.78-.28-.43,0-.97,.18-1.62,.53s-1.39,1.01-2.22,1.97c-.5,.6-1.07,1.33-1.7,2.2s-1.15,1.65-1.55,2.35c-.67,1.13-1.27,2.27-1.8,3.42-.53,1.15-1,2.21-1.4,3.17-.33,.77-.73,1.26-1.2,1.47-.47,.22-.92,.31-1.35,.28-.43-.03-.77-.03-1,0,.93-1.83,1.85-3.77,2.75-5.8s1.67-4.07,2.3-6.1c.3-.93,.55-1.84,.75-2.72s.28-1.46,.25-1.72v-.1c0-.27,.13-.33,.4-.2,.43,.23,.73,.58,.9,1.03s.25,.96,.25,1.53c0,.63-.08,1.31-.25,2.02-.17,.72-.37,1.36-.6,1.92,.43-.6,.9-1.21,1.4-1.82s1.05-1.21,1.65-1.78c.7-.7,1.45-1.31,2.25-1.83,.8-.52,1.67-.77,2.6-.77s1.56,.2,1.98,.6,.62,.93,.62,1.6-.2,1.5-.6,2.4c-.43,1.03-.96,2.07-1.57,3.1-.62,1.03-1.18,2.03-1.68,3-.1,.2-.26,.51-.47,.93s-.41,.88-.58,1.38c-.07,.23-.13,.47-.2,.72s-.1,.51-.1,.78c0,.33,.08,.64,.22,.92,.15,.28,.44,.42,.88,.42,.57,0,1.11-.19,1.62-.58,.52-.38,.96-.79,1.33-1.22,.77-.83,1.48-1.76,2.12-2.78,.65-1.02,1.29-2.09,1.92-3.22,.1-.13,.17-.2,.2-.2,.13,0,.2,.15,.2,.45,0,.2-.03,.35-.1,.45-.6,1.1-1.23,2.17-1.9,3.22-.67,1.05-1.48,2.06-2.45,3.03-.43,.43-.93,.82-1.5,1.15s-1.2,.5-1.9,.5l.02,.02Z"/><path class="cls-6" d="M137.79,44.83c-.83,0-1.58-.24-2.23-.72s-.97-1.28-.97-2.38c0-1.17,.28-2.45,.85-3.85,.57-1.4,1.1-2.65,1.6-3.75,.27-.53,.62-1.26,1.08-2.18,.45-.92,.94-1.82,1.47-2.72h-2.35c-.1,0-.15-.08-.15-.25,0-.13,.05-.28,.15-.42,.1-.15,.22-.23,.35-.23,.93,0,1.63-.08,2.1-.25s.87-.4,1.2-.7c.53-.47,1.06-1.07,1.58-1.8s1.03-1.37,1.53-1.9c.37-.47,.82-.82,1.38-1.05,.55-.23,.91-.32,1.07-.25-.17,.23-.43,.63-.8,1.2-.37,.57-.75,1.18-1.15,1.85s-.77,1.28-1.1,1.85-.55,.95-.65,1.15h3.3c.1,0,.15,.03,.15,.1,0,.13-.07,.28-.22,.45s-.29,.25-.42,.25h-3.25c-.6,1.03-1.31,2.38-2.12,4.03-.82,1.65-1.54,3.24-2.17,4.77-.13,.3-.36,.9-.68,1.8-.32,.9-.47,1.73-.47,2.5,0,.5,.11,.92,.33,1.25s.59,.5,1.12,.5c.57,0,1.18-.21,1.85-.62,.67-.42,1.18-.84,1.55-1.27,.77-.83,1.47-1.75,2.1-2.75s1.27-2.07,1.9-3.2c.1-.13,.2-.2,.3-.2,.13,0,.2,.1,.2,.3,0,.17-.03,.3-.1,.4-.6,1.1-1.24,2.2-1.92,3.3s-1.51,2.13-2.48,3.1c-.43,.43-1.02,.82-1.75,1.17s-1.45,.52-2.15,.52h-.03Z"/><path class="cls-6" d="M156.04,44.83c-1.07,0-1.8-.34-2.2-1.02s-.6-1.44-.6-2.28c0-.17,.03-.46,.08-.88,.05-.42,.11-.81,.17-1.17-.47,.63-1.02,1.33-1.67,2.1-.65,.77-1.31,1.42-1.97,1.95-1.07,.87-2.03,1.3-2.9,1.3s-1.47-.35-1.92-1.05-.67-1.58-.67-2.65c0-1.37,.3-2.75,.9-4.15,.6-1.4,1.39-2.72,2.38-3.97s2.08-2.33,3.28-3.23c.7-.5,1.56-.91,2.58-1.22,1.02-.32,2.04-.48,3.07-.48,1.17,0,2.19,.18,3.08,.53,.88,.35,1.49,.84,1.83,1.47-.7,.9-1.42,2.01-2.15,3.33s-1.37,2.51-1.9,3.58c-.37,.73-.77,1.64-1.2,2.72s-.65,2.01-.65,2.78c0,.33,.08,.67,.25,1s.48,.5,.95,.5c.53,0,1.05-.2,1.55-.6,.5-.4,.92-.8,1.25-1.2,.77-.83,1.47-1.75,2.1-2.75s1.27-2.07,1.9-3.2c.1-.13,.2-.2,.3-.2,.13,0,.2,.1,.2,.3,0,.17-.03,.3-.1,.4-.57,1.1-1.2,2.2-1.9,3.3s-1.53,2.13-2.5,3.1c-.47,.47-1.02,.87-1.65,1.2-.63,.33-1.25,.5-1.85,.5h-.04Zm-8-1.56c.63,0,1.33-.34,2.08-1.02s1.48-1.52,2.2-2.5,1.37-1.93,1.95-2.85,1.04-1.62,1.38-2.12c.7-1.1,1.35-2.02,1.95-2.75,.6-.73,1.53-1.3,2.8-1.7,.07,0,.12,0,.17-.02s.11-.03,.17-.03c-.3-.47-.8-.82-1.5-1.05s-1.38-.35-2.05-.35c-1.03,0-2.03,.28-3,.85s-1.85,1.28-2.65,2.15c-.77,.9-1.52,1.88-2.25,2.95s-1.32,2.15-1.77,3.25-.67,2.15-.67,3.15c0,.53,.09,1.01,.27,1.42,.18,.42,.49,.62,.92,.62Z"/></g><g><path class="cls-4" d="M131.05,14.86s.98-8.86,5.27-10.25S148.13,.67,152.53,.15s15.46,8.28,17.26,10.13,3.3,7.64,3.3,7.64c0,0,1.71,10.82-1.47,13.08-3.18,2.26-8.54-9.44-8.54-9.44"/><g><path class="cls-1" d="M163.4,18.71c-.12-.09-.26-.16-.41-.2,.36-.09,.64-.28,.78-.57,.34-.7-.37-1.74-1.61-2.25-.08-.03-.16-.06-.24-.09,0,0,0-.01-.02-.02-.02-.74-1.61-1.96-3.84-2.58-.55-.15-1.08-.26-1.58-.32-.64-.29-1.41-.53-2.26-.69-1.4-.26-2.68-.21-3.53,.02-.78-.33-1.89-.57-3.12-.6-1.19-.03-2.27,.14-3.06,.41-.8-.19-1.86-.25-3-.12-1.5,.17-2.78,.64-3.51,1.15-.03,0-.06,.01-.09,.02-.86-.21-2.28-.15-3.81,.3-1.82,.54-3.23,1.48-3.66,2.2-.08,.03-.16,.06-.24,.09-1.25,.52-1.96,1.58-1.62,2.27,.1,.2,.26,.34,.47,.45-.41,.53-.45,1.38-.05,2.14,.45,.87,1.27,1.37,1.95,1.27-.14,.33-.15,.66,0,.94,.35,.7,1.42,.87,2.41,.46,.23-.1,.44-.22,.62-.35,.66,.33,2.03,.24,3.51-.17,1.16-.33,2.15-.78,2.71-1.26,.69,.16,1.63,.18,2.64,.08,1.09-.12,2.05-.37,2.7-.7,.66,.31,1.65,.52,2.77,.59,1.19,.07,2.26-.04,2.95-.32,.46,.59,1.62,1.14,3.04,1.49,1.3,.32,2.5,.39,3.22,.17,.25,.36,.64,.67,1.14,.86,.98,.39,2.03,.18,2.37-.52,.12-.25,.12-.54,.02-.83,.63,.28,1.56-.05,2.23-.82,.74-.85,.82-1.98,.11-2.51h.02Z"/><path class="cls-3" d="M163.4,18.71c-.12-.09-.26-.16-.41-.2,.36-.09,.64-.28,.78-.57,.34-.7-.37-1.74-1.61-2.25-.08-.03-.16-.06-.24-.09,0,0,0-.01-.02-.02-.02-.74-1.61-1.96-3.84-2.58-.55-.15-1.08-.26-1.58-.32-.64-.29-1.41-.53-2.26-.69-1.4-.26-2.68-.21-3.53,.02-.78-.33-1.89-.57-3.12-.6-1.19-.03-2.27,.14-3.06,.41-.8-.19-1.86-.25-3-.12-1.5,.17-2.78,.64-3.51,1.15-.03,0-.06,.01-.09,.02-.86-.21-2.28-.15-3.81,.3-1.82,.54-3.23,1.48-3.66,2.2-.08,.03-.16,.06-.24,.09-1.25,.52-1.96,1.58-1.62,2.27,.1,.2,.26,.34,.47,.45-.41,.53-.45,1.38-.05,2.14,.45,.87,1.27,1.37,1.95,1.27-.14,.33-.15,.66,0,.94,.35,.7,1.42,.87,2.41,.46,.23-.1,.44-.22,.62-.35,.66,.33,2.03,.24,3.51-.17,1.16-.33,2.15-.78,2.71-1.26,.69,.16,1.63,.18,2.64,.08,1.09-.12,2.05-.37,2.7-.7,.66,.31,1.65,.52,2.77,.59,1.19,.07,2.26-.04,2.95-.32,.46,.59,1.62,1.14,3.04,1.49,1.3,.32,2.5,.39,3.22,.17,.25,.36,.64,.67,1.14,.86,.98,.39,2.03,.18,2.37-.52,.12-.25,.12-.54,.02-.83,.63,.28,1.56-.05,2.23-.82,.74-.85,.82-1.98,.11-2.51h.02Z"/></g><path class="cls-2" d="M178.19,32.06c-.21-.96-.62-1.74-1.06-2.11-.19-.39-.47-.82-.83-1.22-.82-.92-1.77-1.44-2.33-1.33-.47-.19-1.11-.32-1.81-.32-1.45,0-2.63,.51-2.63,1.14v.08c-.47,.22-1.01,.62-1.5,1.17-.97,1.08-1.37,2.3-.9,2.72,0,0,.02,.02,.04,.03-.11,.4-.17,.87-.17,1.38,0,1.45,.51,2.63,1.14,2.63,.09,0,.17-.02,.25-.07,.25,.27,.55,.54,.9,.78,.09,.06,.18,.12,.27,.18v.09c0,.63,1.18,1.14,2.63,1.14,1,0,1.87-.24,2.31-.6,.55-.07,1.27-.38,1.96-.89,.98-.73,1.58-1.63,1.52-2.2,.36-.45,.46-1.46,.21-2.59h0Z"/></g></g></g></svg>